<svg width="23" height="23" viewBox="0 0 23 23" fill="none" xmlns="http://www.w3.org/2000/svg">
<path d="M9.82872 19.2905C7.95731 19.2905 6.12793 18.7355 4.5719 17.6958C3.01588 16.6561 1.80311 15.1784 1.08696 13.4494C0.370799 11.7205 0.18342 9.81796 0.548514 7.98251C0.913607 6.14706 1.81478 4.46109 3.13806 3.1378C4.46135 1.81452 6.14732 0.913348 7.98277 0.548254C9.81822 0.18316 11.7207 0.370539 13.4497 1.0867C15.1786 1.80285 16.6564 3.01562 17.6961 4.57165C18.7358 6.12767 19.2907 7.95705 19.2907 9.82846C19.2907 11.071 19.046 12.3014 18.5705 13.4494C18.095 14.5974 17.398 15.6405 16.5194 16.5191C15.6407 17.3977 14.5977 18.0947 13.4497 18.5702C12.3017 19.0457 11.0713 19.2905 9.82872 19.2905ZM9.82872 2.26387C8.33756 2.26387 6.87988 2.70605 5.64002 3.5345C4.40017 4.36295 3.43381 5.54045 2.86317 6.9181C2.29253 8.29576 2.14322 9.81169 2.43413 11.2742C2.72504 12.7367 3.44311 14.0801 4.49752 15.1345C5.55193 16.1889 6.89533 16.907 8.35784 17.1979C9.82036 17.4888 11.3363 17.3395 12.7139 16.7689C14.0916 16.1982 15.2691 15.2319 16.0975 13.992C16.926 12.7522 17.3682 11.2945 17.3682 9.80333C17.3682 7.80374 16.5738 5.88605 15.1599 4.47213C13.746 3.05821 11.8283 2.26387 9.82872 2.26387Z" fill="black"/>
<path d="M21.425 22.3691C21.3012 22.3697 21.1785 22.3456 21.0641 22.2981C20.9497 22.2506 20.846 22.1808 20.759 22.0927L15.5693 16.903C15.4029 16.7244 15.3122 16.4881 15.3166 16.2439C15.3209 15.9998 15.4198 15.7668 15.5924 15.5942C15.7651 15.4215 15.9981 15.3226 16.2422 15.3183C16.4864 15.314 16.7227 15.4046 16.9013 15.5711L22.091 20.7607C22.2675 20.9374 22.3666 21.177 22.3666 21.4267C22.3666 21.6765 22.2675 21.916 22.091 22.0927C22.004 22.1808 21.9002 22.2506 21.7859 22.2981C21.6715 22.3456 21.5488 22.3697 21.425 22.3691Z" fill="black"/>
</svg>
