<svg width="40" height="40" viewBox="0 0 40 40" fill="none" xmlns="http://www.w3.org/2000/svg">
<path d="M28.6667 34.5833C28.4627 34.583 28.2621 34.5314 28.0833 34.4333L20 30.1833L11.9167 34.4333C11.7113 34.5436 11.4791 34.5943 11.2464 34.5795C11.0138 34.5648 10.7899 34.4853 10.6 34.35C10.4104 34.2111 10.2633 34.0221 10.175 33.8043C10.0867 33.5865 10.0607 33.3484 10.1 33.1167L11.6667 24.1167L5.1 17.75C4.93542 17.5853 4.82013 17.3778 4.76713 17.1511C4.71412 16.9243 4.72551 16.6873 4.8 16.4667C4.86978 16.2452 5.00065 16.048 5.17755 15.8976C5.35445 15.7472 5.57021 15.6499 5.8 15.6167L14.8333 14.3L18.8833 6.11668C18.9986 5.9233 19.1621 5.76317 19.3579 5.65197C19.5536 5.54076 19.7749 5.4823 20 5.4823C20.2251 5.4823 20.4464 5.54076 20.6421 5.65197C20.8379 5.76317 21.0014 5.9233 21.1167 6.11668L25.1667 14.3L34.2 15.6167C34.4298 15.6499 34.6455 15.7472 34.8225 15.8976C34.9994 16.048 35.1302 16.2452 35.2 16.4667C35.2745 16.6873 35.2859 16.9243 35.2329 17.1511C35.1799 17.3778 35.0646 17.5853 34.9 17.75L28.3333 24.1167L29.8833 33.1167C29.9226 33.3484 29.8967 33.5865 29.8084 33.8043C29.7201 34.0221 29.5729 34.2111 29.3833 34.35C29.1719 34.4951 28.923 34.5761 28.6667 34.5833ZM20 27.5333C20.2017 27.5357 20.4006 27.5812 20.5833 27.6667L27 31L25.7833 23.85C25.7503 23.6495 25.7648 23.444 25.8256 23.2501C25.8864 23.0561 25.9918 22.8792 26.1333 22.7333L31.3333 17.7333L24.15 16.6667C23.9513 16.6351 23.7631 16.5566 23.6008 16.4378C23.4385 16.3189 23.3068 16.1632 23.2167 15.9833L20 9.48334L16.7833 16C16.6932 16.1798 16.5615 16.3356 16.3992 16.4544C16.2369 16.5733 16.0487 16.6517 15.85 16.6833L8.66667 17.7333L13.8667 22.7333C14.0082 22.8792 14.1136 23.0561 14.1744 23.2501C14.2352 23.444 14.2497 23.6495 14.2167 23.85L13 31.05L19.4167 27.7167C19.5954 27.6138 19.7945 27.5513 20 27.5333Z" fill="#FCB413"/>
<path d="M20 27.5333C20.2017 27.5357 20.4006 27.5812 20.5833 27.6667L27 31L25.7833 23.85C25.7503 23.6495 25.7648 23.444 25.8256 23.2501C25.8864 23.0561 25.9918 22.8792 26.1333 22.7333L31.3333 17.7333L24.15 16.6667C23.9513 16.6351 23.7631 16.5566 23.6008 16.4378C23.4385 16.3189 23.3068 16.1632 23.2167 15.9833L20 9.48334L16.7833 16C16.6932 16.1798 16.5615 16.3356 16.3992 16.4544C16.2369 16.5733 16.0487 16.6517 15.85 16.6833L8.66667 17.7333L13.8667 22.7333C14.0082 22.8792 14.1136 23.0561 14.1744 23.2501C14.2352 23.444 14.2497 23.6495 14.2167 23.85L13 31.05L19.4167 27.7167C19.5954 27.6138 19.7945 27.5513 20 27.5333Z" fill="#FCB413"/>
</svg>
