<svg width="22" height="22" viewBox="0 0 22 22" fill="none" xmlns="http://www.w3.org/2000/svg">
<path d="M11 1.83398C10.8167 1.83398 10.6333 1.92565 10.45 2.01732L3.20833 6.05065C2.93333 6.23398 2.75 6.50898 2.75 6.87565V15.1257C2.75 15.4923 2.93333 15.7673 3.20833 15.9507L10.45 19.984C10.6333 20.0757 10.8167 20.1673 11 20.1673C11.1833 20.1673 11.3667 20.0757 11.55 19.984L12.375 19.5257C12.1 18.9757 12.0083 18.334 11.9167 17.6923V11.5507L17.4167 8.43398V11.9173C18.0583 11.9173 18.7 12.009 19.25 12.1923V6.87565C19.25 6.50898 19.0667 6.23398 18.7917 6.05065L11.55 2.01732C11.3667 1.92565 11.1833 1.83398 11 1.83398ZM11 3.85065L16.5 6.87565L14.6667 7.88399L9.25833 4.76732L11 3.85065ZM7.425 5.77565L12.8333 8.98398L11 9.99232L5.5 6.87565L7.425 5.77565ZM4.58333 8.43398L10.0833 11.5507V17.6923L4.58333 14.5757V8.43398ZM19.525 14.484L16.225 17.784L14.7583 16.3173L13.75 17.4173L16.3167 20.1673L20.7167 15.7673L19.525 14.484Z" fill="black"/>
</svg>
