<svg width="22" height="21" viewBox="0 0 22 21" fill="none" xmlns="http://www.w3.org/2000/svg">
<path d="M10.0567 18.8562C10.0567 19.8996 9.21442 20.7419 8.17104 20.7419C7.12766 20.7419 6.28542 19.8996 6.28542 18.8562C6.28542 17.8129 7.12766 16.9706 8.17104 16.9706C9.21442 16.9706 10.0567 17.8129 10.0567 18.8562ZM16.3421 16.9706C15.2987 16.9706 14.4565 17.8129 14.4565 18.8562C14.4565 19.8996 15.2987 20.7419 16.3421 20.7419C17.3855 20.7419 18.2277 19.8996 18.2277 18.8562C18.2277 17.8129 17.3855 16.9706 16.3421 16.9706ZM21.9738 4.94034L19.4596 14.997C19.409 15.2019 19.291 15.3839 19.1246 15.5138C18.9582 15.6438 18.7531 15.7141 18.542 15.7135H5.97115C5.5186 15.7135 5.1289 15.3867 5.0409 14.9341L2.66502 1.88562H0.942812C0.427408 1.88562 0 1.45822 0 0.942812C0 0.427408 0.427408 0 0.942812 0H3.45698C3.90953 0 4.29922 0.326841 4.38722 0.779392L4.92777 3.77125H21.0561C21.1991 3.77185 21.3401 3.80478 21.4685 3.86757C21.5969 3.93036 21.7095 4.02139 21.7977 4.13384C21.886 4.24629 21.9477 4.37725 21.9782 4.51691C22.0087 4.65658 22.0072 4.80133 21.9738 4.94034ZM19.8493 5.65687H5.26718L6.75054 13.8279H17.8003L19.8493 5.65687Z" fill="black"/>
</svg>
