<svg width="28" height="28" viewBox="0 0 28 28" fill="none" xmlns="http://www.w3.org/2000/svg">
<path d="M13.9999 7.58337C14.7735 7.58337 15.5153 7.89067 16.0623 8.43765C16.6093 8.98463 16.9166 9.72649 16.9166 10.5C16.9166 10.8831 16.8411 11.2623 16.6946 11.6162C16.548 11.9701 16.3332 12.2916 16.0623 12.5624C15.7915 12.8333 15.4699 13.0481 15.1161 13.1947C14.7622 13.3413 14.3829 13.4167 13.9999 13.4167C13.2264 13.4167 12.4845 13.1094 11.9375 12.5624C11.3905 12.0155 11.0833 11.2736 11.0833 10.5C11.0833 9.72649 11.3905 8.98463 11.9375 8.43765C12.4845 7.89067 13.2264 7.58337 13.9999 7.58337ZM13.9999 2.33337C16.1659 2.33337 18.2431 3.19379 19.7746 4.72534C21.3062 6.25688 22.1666 8.33411 22.1666 10.5C22.1666 16.625 13.9999 25.6667 13.9999 25.6667C13.9999 25.6667 5.83325 16.625 5.83325 10.5C5.83325 8.33411 6.69367 6.25688 8.22521 4.72534C9.75676 3.19379 11.834 2.33337 13.9999 2.33337ZM13.9999 4.66671C12.4528 4.66671 10.9691 5.28129 9.87513 6.37525C8.78117 7.46921 8.16659 8.95294 8.16659 10.5C8.16659 11.6667 8.16659 14 13.9999 21.8284C19.8333 14 19.8333 11.6667 19.8333 10.5C19.8333 8.95294 19.2187 7.46921 18.1247 6.37525C17.0307 5.28129 15.547 4.66671 13.9999 4.66671Z" fill="#6149A2"/>
</svg>
