<svg width="28" height="28" viewBox="0 0 28 28" fill="none" xmlns="http://www.w3.org/2000/svg">
<path d="M8.16675 16.3334C10.1034 16.3334 11.6667 14.77 11.6667 12.8334C11.6667 10.8967 10.1034 9.33337 8.16675 9.33337C6.23008 9.33337 4.66675 10.8967 4.66675 12.8334C4.66675 14.77 6.23008 16.3334 8.16675 16.3334ZM8.16675 11.6667C8.80841 11.6667 9.33341 12.1917 9.33341 12.8334C9.33341 13.475 8.80841 14 8.16675 14C7.52508 14 7.00008 13.475 7.00008 12.8334C7.00008 12.1917 7.52508 11.6667 8.16675 11.6667ZM22.1667 8.16671H12.8334V17.5H3.50008V5.83337H1.16675V23.3334H3.50008V19.8334H24.5001V23.3334H26.8334V12.8334C26.8334 10.255 24.7451 8.16671 22.1667 8.16671ZM24.5001 17.5H15.1667V10.5H22.1667C23.4501 10.5 24.5001 11.55 24.5001 12.8334V17.5Z" fill="#6149A2"/>
</svg>
