<svg width="33" height="32" viewBox="0 0 33 32" fill="none" xmlns="http://www.w3.org/2000/svg">
<path fill-rule="evenodd" clip-rule="evenodd" d="M6.78253 24.188C4.73319 21.9347 4.17319 19.084 4.42253 16.5373C4.69719 13.728 5.97853 11.0333 7.64653 9.64268C9.87586 7.78534 12.2172 7.02268 14.2492 6.64934C15.2388 6.48038 16.2353 6.35448 17.2359 6.27201C17.7745 6.22134 18.3199 6.17068 18.8439 6.04001C19.9479 5.76401 21.0372 5.31601 21.9345 4.60401C22.3452 4.27734 22.7612 3.94668 23.3145 4.00801C23.5134 4.03014 23.7048 4.09676 23.8745 4.20294C24.0441 4.30911 24.1877 4.45211 24.2945 4.62134C28.5612 11.3773 27.9172 18.5493 24.3532 23.0667C22.5732 25.3213 20.0732 26.8947 17.1572 27.36C14.6132 27.764 11.8332 27.312 9.03186 25.8453C8.78573 26.6104 8.60289 27.3944 8.48519 28.1893C8.43515 28.5394 8.2481 28.8553 7.96517 29.0675C7.68224 29.2796 7.32661 29.3707 6.97653 29.3207C6.62644 29.2706 6.31057 29.0836 6.0984 28.8006C5.88624 28.5177 5.79515 28.1621 5.84519 27.812C6.01053 26.6587 6.32519 25.4307 6.78253 24.188ZM14.7292 9.27201C15.6679 9.10001 16.5492 9.01734 17.4052 8.93334C18.1039 8.86668 18.8079 8.79734 19.4905 8.62668C20.6402 8.34499 21.7413 7.89288 22.7572 7.28534C25.6612 12.7747 24.8505 18.1307 22.2599 21.416C20.8625 23.1867 18.9412 24.376 16.7399 24.7253C14.7625 25.04 12.4732 24.6933 10.0332 23.3573C11.5159 20.3347 13.9399 17.4373 17.0959 15.86C17.4124 15.7019 17.6531 15.4246 17.7651 15.0891C17.8771 14.7535 17.8513 14.3872 17.6932 14.0707C17.5351 13.7542 17.2578 13.5134 16.9222 13.4014C16.5867 13.2894 16.2204 13.3153 15.9039 13.4733C12.4265 15.212 9.76253 18.2187 8.03053 21.4253C7.17586 20.0253 6.91986 18.3973 7.07719 16.796C7.30253 14.492 8.35719 12.5227 9.35319 11.6907C11.1239 10.2147 12.9905 9.59201 14.7305 9.27201H14.7292Z" fill="#6149A2"/>
</svg>
