<svg width="29" height="30" viewBox="0 0 29 30" fill="none" xmlns="http://www.w3.org/2000/svg">
<path d="M14.5009 15.2961C13.6226 15.2961 12.764 15.0356 12.0337 14.5477C11.3034 14.0597 10.7342 13.3662 10.3981 12.5547C10.062 11.7433 9.97406 10.8504 10.1454 9.98894C10.3168 9.12751 10.7397 8.33624 11.3608 7.71518C11.9818 7.09413 12.7731 6.67118 13.6345 6.49984C14.4959 6.32849 15.3888 6.41643 16.2003 6.75254C17.0117 7.08865 17.7053 7.65784 18.1933 8.38813C18.6812 9.11841 18.9417 9.97699 18.9417 10.8553C18.9417 12.0331 18.4738 13.1626 17.641 13.9954C16.8082 14.8282 15.6786 15.2961 14.5009 15.2961ZM14.5009 8.19082C13.9739 8.19082 13.4587 8.34709 13.0206 8.63987C12.5824 8.93264 12.2409 9.34878 12.0392 9.83565C11.8376 10.3225 11.7848 10.8583 11.8876 11.3751C11.9904 11.892 12.2442 12.3667 12.6168 12.7394C12.9894 13.112 13.4642 13.3658 13.9811 13.4686C14.4979 13.5714 15.0337 13.5186 15.5205 13.3169C16.0074 13.1153 16.4235 12.7738 16.7163 12.3356C17.0091 11.8974 17.1653 11.3823 17.1653 10.8553C17.1653 10.1486 16.8846 9.47091 16.3849 8.97123C15.8853 8.47154 15.2075 8.19082 14.5009 8.19082ZM22.7903 23.5856C22.5557 23.5825 22.3316 23.4879 22.1657 23.322C21.9998 23.1561 21.9053 22.932 21.9022 22.6974C21.9022 20.3882 20.6469 18.8487 14.5009 18.8487C8.35482 18.8487 7.09956 20.3882 7.09956 22.6974C7.09956 22.933 7.00598 23.1589 6.83942 23.3254C6.67286 23.492 6.44695 23.5856 6.2114 23.5856C5.97585 23.5856 5.74994 23.492 5.58338 23.3254C5.41682 23.1589 5.32324 22.933 5.32324 22.6974C5.32324 17.0724 11.7535 17.0724 14.5009 17.0724C17.2482 17.0724 23.6785 17.0724 23.6785 22.6974C23.6754 22.932 23.5809 23.1561 23.415 23.322C23.2491 23.4879 23.0249 23.5825 22.7903 23.5856Z" fill="black"/>
</svg>
