<svg width="28" height="28" viewBox="0 0 28 28" fill="none" xmlns="http://www.w3.org/2000/svg">
<path d="M23.3333 24.5H19.8333V22.1667H23.3333V24.5ZM23.3333 19.8334H19.8333V17.5H23.3333V19.8334ZM23.3333 15.1667H19.8333V12.8334H23.3333V15.1667ZM28 9.10004C27.5333 5.25004 24.2667 2.33337 20.4167 2.33337C18.4333 2.33337 16.45 3.15004 15.05 4.55004C14.2333 5.36671 13.65 6.18337 13.3 7.23337L18.2 10.5H25.6667V25.6667H28V9.10004ZM15.5167 8.16671C16.2167 6.06671 18.2 4.66671 20.4167 4.66671C22.6333 4.66671 24.6167 6.06671 25.3167 8.16671H15.5167ZM8.75 7.00004L0 12.8334V25.6667H17.5V12.8334L8.75 7.00004ZM15.1667 23.3334H11.6667V16.3334H5.83333V23.3334H2.33333V14L8.75 9.91671L15.1667 14V23.3334Z" fill="#6149A2"/>
</svg>
