<svg width="33" height="32" viewBox="0 0 33 32" fill="none" xmlns="http://www.w3.org/2000/svg">
<path fill-rule="evenodd" clip-rule="evenodd" d="M15.1713 15.72L15.4727 15.7867L20.4273 17.024C21.9887 17.4147 22.774 19.0614 22.2807 20.544L22.7073 20.2507L23.5687 19.6347C24.002 19.328 24.4447 19.0374 24.9047 18.808C26.9527 17.784 29.35 19.196 29.494 21.436L29.5007 21.6494V21.7227C29.5007 22.652 29.1007 23.532 28.4073 24.1414L28.2113 24.3014L24.118 27.3707C23.7193 27.6694 23.27 27.8907 22.7927 28.024L22.502 28.0934L18.222 28.9494C16.8927 29.2148 15.5141 29.0688 14.27 28.5307L13.934 28.3747L10.8007 26.808C10.6624 26.7383 10.5131 26.6932 10.3593 26.6747L10.2047 26.6667H9.14332C8.9284 27.039 8.62665 27.3539 8.26378 27.5844C7.90091 27.8149 7.48769 27.9543 7.05932 27.9907L6.83398 28H5.50065C4.82788 28.0002 4.1799 27.7462 3.68659 27.2887C3.19328 26.8312 2.89111 26.2042 2.84065 25.5334L2.83398 25.3334V20C2.83411 19.3275 3.08835 18.6798 3.54577 18.1868C4.00319 17.6938 4.63001 17.3918 5.30065 17.3414L5.50065 17.3334H6.83398C7.47932 17.3334 8.07132 17.5627 8.53265 17.9454L8.69932 18.0947L11.3527 16.4374C12.4001 15.7825 13.6423 15.5115 14.8673 15.6707L15.1713 15.72ZM12.766 18.6987L9.50065 20.7387V24H10.2047C10.8258 24.0001 11.4384 24.1448 11.994 24.4227L15.1273 25.9894C15.923 26.387 16.8285 26.508 17.7007 26.3334L21.9793 25.4774C22.1745 25.4386 22.3586 25.3566 22.518 25.2374L26.6113 22.1667C26.782 22.0387 26.834 21.8507 26.834 21.648C26.834 21.5661 26.8143 21.4853 26.7765 21.4127C26.7386 21.34 26.6838 21.2775 26.6167 21.2305C26.5495 21.1835 26.4721 21.1534 26.3908 21.1428C26.3096 21.1321 26.227 21.1413 26.15 21.1694L22.9127 23.3294C22.2551 23.7672 21.4826 24.0006 20.6927 24H16.1673V21.3334H18.246C18.5257 21.3331 18.7983 21.245 19.0251 21.0813C19.252 20.9176 19.4216 20.6868 19.51 20.4214L19.7807 19.6107L14.826 18.3734C14.4784 18.2864 14.1168 18.2704 13.7629 18.3263C13.4089 18.3822 13.0699 18.5088 12.766 18.6987ZM6.83398 20H5.50065V25.3334H6.83398V20ZM21.5007 4.62669C22.874 3.76803 24.45 3.83603 25.722 4.57736C27.2047 5.44136 28.21 7.16669 28.166 9.14003C28.1113 11.5867 26.286 13.5987 23.582 15.2734L23.0513 15.592C22.574 15.8747 22.0647 16.1494 21.5007 16.1494C20.9367 16.1494 20.4273 15.8747 19.95 15.592L19.4193 15.272C16.714 13.5974 14.89 11.5867 14.834 9.13869C14.79 7.16536 15.7953 5.44003 17.278 4.57603C18.55 3.83469 20.1247 3.76669 21.4993 4.62536L21.5007 4.62669ZM24.3793 6.88136C23.874 6.58802 23.2727 6.55336 22.6753 7.06269L22.4007 7.31603C22.1448 7.5196 21.8276 7.63043 21.5007 7.63043C21.1737 7.63043 20.8565 7.5196 20.6007 7.31603L20.326 7.06269C19.7273 6.55336 19.126 6.58669 18.622 6.88136C18.0073 7.24002 17.478 8.04136 17.502 9.08136C17.5247 10.1187 18.326 11.4547 20.7927 12.9867L21.11 13.1787L21.5007 13.4067L21.8913 13.18C24.6073 11.564 25.4753 10.16 25.5007 9.07736C25.5247 8.03869 24.9953 7.23736 24.3807 6.87869L24.3793 6.88136Z" fill="#6149A2"/>
</svg>
