<svg width="29" height="29" viewBox="0 0 29 29" fill="none" xmlns="http://www.w3.org/2000/svg">
<path d="M20.5018 0.516602C22.5931 0.516602 24.5988 1.34737 26.0775 2.82615C27.5563 4.30494 28.3871 6.31059 28.3871 8.40191V21.0184C28.3871 23.1097 27.5563 25.1154 26.0775 26.5941C24.5988 28.0729 22.5931 28.9037 20.5018 28.9037H7.8853C5.79399 28.9037 3.78833 28.0729 2.30955 26.5941C0.830771 25.1154 0 23.1097 0 21.0184V8.40191C0 6.31059 0.830771 4.30494 2.30955 2.82615C3.78833 1.34737 5.79399 0.516602 7.8853 0.516602H20.5018ZM14.1935 8.40191C12.5205 8.40191 10.916 9.06652 9.73295 10.2495C8.54992 11.4326 7.8853 13.0371 7.8853 14.7102C7.8853 16.3832 8.54992 17.9877 9.73295 19.1708C10.916 20.3538 12.5205 21.0184 14.1935 21.0184C15.8666 21.0184 17.4711 20.3538 18.6542 19.1708C19.8372 17.9877 20.5018 16.3832 20.5018 14.7102C20.5018 13.0371 19.8372 11.4326 18.6542 10.2495C17.4711 9.06652 15.8666 8.40191 14.1935 8.40191ZM14.1935 11.556C15.0301 11.556 15.8323 11.8883 16.4238 12.4798C17.0154 13.0714 17.3477 13.8736 17.3477 14.7102C17.3477 15.5467 17.0154 16.3489 16.4238 16.9405C15.8323 17.532 15.0301 17.8643 14.1935 17.8643C13.357 17.8643 12.5548 17.532 11.9632 16.9405C11.3717 16.3489 11.0394 15.5467 11.0394 14.7102C11.0394 13.8736 11.3717 13.0714 11.9632 12.4798C12.5548 11.8883 13.357 11.556 14.1935 11.556ZM21.2903 6.03631C20.8721 6.03631 20.4709 6.20247 20.1752 6.49823C19.8794 6.79398 19.7133 7.19511 19.7133 7.61338C19.7133 8.03164 19.8794 8.43277 20.1752 8.72853C20.4709 9.02428 20.8721 9.19044 21.2903 9.19044C21.7086 9.19044 22.1097 9.02428 22.4055 8.72853C22.7012 8.43277 22.8674 8.03164 22.8674 7.61338C22.8674 7.19511 22.7012 6.79398 22.4055 6.49823C22.1097 6.20247 21.7086 6.03631 21.2903 6.03631Z" fill="#636DCF"/>
</svg>
