<svg width="33" height="32" viewBox="0 0 33 32" fill="none" xmlns="http://www.w3.org/2000/svg">
<path fill-rule="evenodd" clip-rule="evenodd" d="M16.8333 2.66669C24.1973 2.66669 30.1667 8.63602 30.1667 16C30.1667 21.7334 26.548 26.6214 21.4707 28.504C21.3848 28.5512 21.2941 28.5887 21.2 28.616L21.0733 28.6454C19.7065 29.1023 18.2746 29.3347 16.8333 29.3334C9.46933 29.3334 3.5 23.364 3.5 16C3.5 8.63602 9.46933 2.66669 16.8333 2.66669ZM20.7133 6.06135L20.4787 7.23602C20.3274 7.99204 19.9609 8.68825 19.4232 9.24083C18.8855 9.79341 18.1996 10.1788 17.448 10.3507L16.9133 10.4734C16.5817 10.549 16.2915 10.7485 16.1021 11.031C15.9127 11.3136 15.8385 11.6579 15.8947 11.9934L16.128 13.3907C16.2023 13.8386 16.1611 14.298 16.0082 14.7255C15.8552 15.153 15.5957 15.5344 15.2541 15.8335C14.9125 16.1326 14.5003 16.3396 14.0563 16.4347C13.6124 16.5299 13.1515 16.5102 12.7173 16.3774L10.9973 15.852C10.1781 15.6016 9.46085 15.0947 8.95127 14.4061C8.44168 13.7174 8.16665 12.8834 8.16667 12.0267V9.78002C6.90421 11.5377 6.20623 13.6378 6.16541 15.8015C6.12459 17.9651 6.74285 20.0901 7.93812 21.8941C9.13338 23.6981 10.8491 25.0959 12.8575 25.9019C14.8659 26.7079 17.0719 26.884 19.1827 26.4067L18.408 23.6974C18.3454 23.4796 18.2284 23.2813 18.068 23.1214L16.4173 21.4694C16.2184 21.2705 16.0636 21.0319 15.9631 20.7692C15.8626 20.5065 15.8187 20.2256 15.8342 19.9447C15.8497 19.6638 15.9242 19.3894 16.0529 19.1393C16.1817 18.8892 16.3617 18.6691 16.5813 18.4934L18.668 16.8254C19.0658 16.5071 19.5465 16.3095 20.0531 16.2558C20.5597 16.2022 21.071 16.2948 21.5267 16.5227L23.4867 17.5027C24.0756 17.7972 24.5827 18.2325 24.963 18.77C25.3433 19.3076 25.585 19.9307 25.6667 20.584L25.8133 21.7587C26.6654 20.4295 27.2118 18.9277 27.4133 17.3618C27.6147 15.7958 27.4662 14.2046 26.9783 12.703C26.4904 11.2014 25.6754 9.82681 24.5921 8.67829C23.5087 7.52977 22.1839 6.63597 20.7133 6.06135ZM20.3333 18.908L18.8293 20.1107L19.9547 21.2347C20.3655 21.646 20.6817 22.142 20.8813 22.688L20.972 22.9654L21.696 25.496C22.1636 25.256 22.6098 24.984 23.0347 24.68L23.452 24.3654L23.0213 20.9147C22.9975 20.7246 22.933 20.5419 22.8322 20.379C22.7315 20.2161 22.5968 20.0769 22.4373 19.9707L22.2933 19.888L20.3333 18.908ZM16.8333 5.33335C14.6896 5.32975 12.595 5.97542 10.8253 7.18535C10.8307 7.23335 10.8333 7.28269 10.8333 7.33335V12.0267C10.8331 12.3123 10.9245 12.5904 11.0942 12.8201C11.264 13.0499 11.5029 13.219 11.776 13.3027L13.4973 13.828L13.264 12.4307C13.0963 11.4248 13.3191 10.3929 13.8869 9.54579C14.4547 8.69871 15.3245 8.10047 16.3187 7.87335L16.8533 7.75202C17.1042 7.69468 17.3331 7.56598 17.5124 7.38144C17.6918 7.1969 17.8139 6.96441 17.864 6.71202L18.1253 5.41069C17.6966 5.35878 17.2652 5.33295 16.8333 5.33335Z" fill="#6149A2"/>
</svg>
