<svg width="29" height="30" viewBox="0 0 29 30" fill="none" xmlns="http://www.w3.org/2000/svg">
<path d="M13.045 22.4606C11.2814 22.4606 9.55737 21.9376 8.09096 20.9578C6.62455 19.978 5.48162 18.5853 4.80671 16.9559C4.13179 15.3265 3.9552 13.5336 4.29927 11.8038C4.64334 10.0741 5.49261 8.48521 6.73969 7.23813C7.98677 5.99105 9.57565 5.14178 11.3054 4.79771C13.0351 4.45364 14.8281 4.63023 16.4575 5.30514C18.0869 5.98006 19.4795 7.12299 20.4593 8.5894C21.4392 10.0558 21.9621 11.7798 21.9621 13.5435C21.9621 14.7145 21.7315 15.874 21.2834 16.9559C20.8352 18.0378 20.1784 19.0208 19.3504 19.8488C18.5224 20.6769 17.5393 21.3337 16.4575 21.7818C15.3756 22.2299 14.2161 22.4606 13.045 22.4606ZM13.045 6.41453C11.6398 6.41453 10.266 6.83124 9.09757 7.61198C7.92911 8.39272 7.01841 9.50241 6.48063 10.8007C5.94285 12.099 5.80214 13.5277 6.0763 14.906C6.35046 16.2842 7.02717 17.5503 8.02086 18.544C9.01455 19.5377 10.2806 20.2144 11.6589 20.4885C13.0372 20.7627 14.4658 20.622 15.7641 20.0842C17.0624 19.5464 18.1721 18.6357 18.9528 17.4673C19.7336 16.2988 20.1503 14.9251 20.1503 13.5198C20.1503 11.6354 19.4017 9.82811 18.0692 8.49561C16.7367 7.16312 14.9295 6.41453 13.045 6.41453Z" fill="black"/>
<path d="M23.9736 25.3619C23.8569 25.3625 23.7413 25.3397 23.6335 25.295C23.5257 25.2503 23.428 25.1844 23.346 25.1014L18.4552 20.2106C18.2983 20.0423 18.2129 19.8196 18.2169 19.5895C18.221 19.3594 18.3142 19.1399 18.4769 18.9771C18.6397 18.8144 18.8592 18.7212 19.0893 18.7171C19.3194 18.7131 19.5421 18.7985 19.7104 18.9554L24.6012 23.8462C24.7675 24.0127 24.861 24.2384 24.861 24.4738C24.861 24.7092 24.7675 24.9349 24.6012 25.1014C24.5192 25.1844 24.4215 25.2503 24.3137 25.295C24.2059 25.3397 24.0903 25.3625 23.9736 25.3619Z" fill="black"/>
</svg>
