<svg width="19" height="25" viewBox="0 0 19 25" fill="none" xmlns="http://www.w3.org/2000/svg">
<path fill-rule="evenodd" clip-rule="evenodd" d="M2.26658 2.15543C2.39222 1.61262 2.69794 1.12834 3.13395 0.781455C3.56996 0.434573 4.11057 0.245531 4.66773 0.245117H15.0419C16.1888 0.245117 17.1853 1.03687 17.443 2.15543L18.7047 7.62C19.9231 12.9033 16.2863 17.9646 11.0856 18.6626L11.0881 18.744V22.4438H14.7878C15.1149 22.4438 15.4286 22.5737 15.6599 22.805C15.8912 23.0362 16.0211 23.3499 16.0211 23.677C16.0211 24.0041 15.8912 24.3178 15.6599 24.5491C15.4286 24.7803 15.1149 24.9103 14.7878 24.9103H4.92178C4.5947 24.9103 4.28102 24.7803 4.04974 24.5491C3.81846 24.3178 3.68852 24.0041 3.68852 23.677C3.68852 23.3499 3.81846 23.0362 4.04974 22.805C4.28102 22.5737 4.5947 22.4438 4.92178 22.4438H8.62156V18.744L8.62402 18.6626C3.42461 17.9646 -0.213503 12.9033 1.00619 7.62L2.26658 2.15543ZM4.6702 2.71163L3.40858 8.17496C2.4528 12.3187 5.60131 16.2775 9.85481 16.2775C14.1083 16.2775 17.2581 12.3199 16.3011 8.17496L15.0407 2.71163H4.6702Z" fill="#6149A2"/>
</svg>
