<svg width="32" height="32" viewBox="0 0 32 32" fill="none" xmlns="http://www.w3.org/2000/svg">
<path d="M14.3623 3.58401C14.7997 3.24374 15.3323 3.04818 15.8859 3.02453C16.4396 3.00087 16.9869 3.15029 17.4517 3.45201L17.637 3.58535L28.8157 12.2787C29.777 13.0267 29.309 14.5347 28.1503 14.6587L27.9957 14.6667H26.6663V25.3333C26.6666 26.0061 26.4125 26.6541 25.955 27.1474C25.4976 27.6407 24.8705 27.9429 24.1997 27.9933L23.9997 28H7.99967C7.32713 27.9999 6.67948 27.7457 6.18645 27.2882C5.69343 26.8308 5.39145 26.204 5.34101 25.5333L5.33301 25.3333V14.6667H4.00367C2.78634 14.6667 2.22767 13.1893 3.06634 12.38L3.18367 12.2787L14.3623 3.58401ZM15.9997 5.68935L7.49967 12.3C7.80501 12.5467 7.99967 12.924 7.99967 13.3467V25.3333H11.9997V18.6667C11.9997 17.6058 12.4211 16.5884 13.1712 15.8383C13.9214 15.0881 14.9388 14.6667 15.9997 14.6667C17.0605 14.6667 18.078 15.0881 18.8281 15.8383C19.5782 16.5884 19.9997 17.6058 19.9997 18.6667V25.3333H23.9997V13.3467C23.9997 12.924 24.1943 12.5467 24.4997 12.3L15.9997 5.68935ZM15.9997 17.3333C15.6461 17.3333 15.3069 17.4738 15.0569 17.7239C14.8068 17.9739 14.6663 18.3131 14.6663 18.6667V25.3333H17.333V18.6667C17.333 18.3131 17.1925 17.9739 16.9425 17.7239C16.6924 17.4738 16.3533 17.3333 15.9997 17.3333Z" fill="#6149A2"/>
</svg>
