<svg width="30" height="30" viewBox="0 0 30 30" fill="none" xmlns="http://www.w3.org/2000/svg">
<path d="M13.5904 23.6209C13.5904 24.6185 12.7851 25.4238 11.7874 25.4238C10.7898 25.4238 9.98448 24.6185 9.98448 23.6209C9.98448 22.6232 10.7898 21.8179 11.7874 21.8179C12.7851 21.8179 13.5904 22.6232 13.5904 23.6209ZM19.6003 21.8179C18.6026 21.8179 17.7973 22.6232 17.7973 23.6209C17.7973 24.6185 18.6026 25.4238 19.6003 25.4238C20.5979 25.4238 21.4032 24.6185 21.4032 23.6209C21.4032 22.6232 20.5979 21.8179 19.6003 21.8179ZM24.9851 10.315L22.5812 19.9308C22.5327 20.1267 22.4199 20.3008 22.2608 20.425C22.1017 20.5492 21.9056 20.6164 21.7037 20.6159H9.68398C9.25127 20.6159 8.87866 20.3034 8.79452 19.8707L6.52279 7.39422H4.87609C4.38328 7.39422 3.97461 6.98554 3.97461 6.49274C3.97461 5.99993 4.38328 5.59126 4.87609 5.59126H7.28004C7.71275 5.59126 8.08536 5.90377 8.1695 6.33648L8.68635 9.19718H24.1077C24.2444 9.19775 24.3791 9.22924 24.5019 9.28927C24.6247 9.34931 24.7324 9.43635 24.8168 9.54387C24.9012 9.65139 24.9601 9.77661 24.9893 9.91015C25.0184 10.0437 25.017 10.1821 24.9851 10.315ZM22.9538 11.0001H9.01088L10.4292 18.813H20.9946L22.9538 11.0001Z" fill="black"/>
</svg>
