<svg width="23" height="21" viewBox="0 0 23 21" fill="none" xmlns="http://www.w3.org/2000/svg">
<path d="M11.1777 10.9404C10.125 10.9404 9.09596 10.6282 8.22067 10.0434C7.34537 9.4585 6.66316 8.62722 6.26031 7.65465C5.85746 6.68208 5.75205 5.61188 5.95743 4.5794C6.1628 3.54692 6.66973 2.59853 7.4141 1.85415C8.15848 1.10978 9.10687 0.602851 10.1394 0.397478C11.1718 0.192105 12.242 0.29751 13.2146 0.700364C14.1872 1.10322 15.0184 1.78543 15.6033 2.66072C16.1882 3.53601 16.5003 4.56508 16.5003 5.61779C16.5003 7.02942 15.9395 8.38324 14.9414 9.38142C13.9432 10.3796 12.5894 10.9404 11.1777 10.9404ZM11.1777 2.42424C10.5461 2.42424 9.92867 2.61154 9.40349 2.96245C8.87832 3.31336 8.46899 3.81212 8.22728 4.39567C7.98557 4.97921 7.92233 5.62133 8.04555 6.24082C8.16877 6.86031 8.47293 7.42934 8.91955 7.87597C9.36618 8.32259 9.93522 8.62675 10.5547 8.74997C11.1742 8.8732 11.8163 8.80995 12.3999 8.56824C12.9834 8.32653 13.4822 7.9172 13.8331 7.39203C14.184 6.86685 14.3713 6.24941 14.3713 5.61779C14.3713 4.77081 14.0348 3.95851 13.4359 3.35961C12.837 2.7607 12.0247 2.42424 11.1777 2.42424ZM21.1132 20.8759C20.832 20.8722 20.5634 20.7588 20.3646 20.56C20.1657 20.3612 20.0524 20.0925 20.0487 19.8113C20.0487 17.0436 18.5442 15.1984 11.1777 15.1984C3.81128 15.1984 2.30677 17.0436 2.30677 19.8113C2.30677 20.0937 2.19461 20.3644 1.99498 20.5641C1.79534 20.7637 1.52458 20.8759 1.24225 20.8759C0.959923 20.8759 0.689159 20.7637 0.489524 20.5641C0.289888 20.3644 0.177734 20.0937 0.177734 19.8113C0.177734 13.0694 7.88483 13.0694 11.1777 13.0694C14.4706 13.0694 22.1777 13.0694 22.1777 19.8113C22.1741 20.0925 22.0607 20.3612 21.8619 20.56C21.663 20.7588 21.3944 20.8722 21.1132 20.8759Z" fill="black"/>
</svg>
