<svg width="28" height="28" viewBox="0 0 28 28" fill="none" xmlns="http://www.w3.org/2000/svg">
<path d="M3.49992 14H8.16659C8.16659 12.4529 8.78117 10.9692 9.87513 9.87525C10.9691 8.78129 12.4528 8.16671 13.9999 8.16671C15.547 8.16671 17.0307 8.78129 18.1247 9.87525C19.2187 10.9692 19.8333 12.4529 19.8333 14H24.4999C24.8093 14 25.1061 14.123 25.3249 14.3418C25.5437 14.5605 25.6666 14.8573 25.6666 15.1667C25.6666 15.4761 25.5437 15.7729 25.3249 15.9917C25.1061 16.2105 24.8093 16.3334 24.4999 16.3334H3.49992C3.1905 16.3334 2.89375 16.2105 2.67496 15.9917C2.45617 15.7729 2.33325 15.4761 2.33325 15.1667C2.33325 14.8573 2.45617 14.5605 2.67496 14.3418C2.89375 14.123 3.1905 14 3.49992 14ZM5.83325 18.6667H22.1666C22.476 18.6667 22.7728 18.7896 22.9915 19.0084C23.2103 19.2272 23.3333 19.524 23.3333 19.8334C23.3333 20.1428 23.2103 20.4395 22.9915 20.6583C22.7728 20.8771 22.476 21 22.1666 21H5.83325C5.52383 21 5.22709 20.8771 5.00829 20.6583C4.7895 20.4395 4.66659 20.1428 4.66659 19.8334C4.66659 19.524 4.7895 19.2272 5.00829 19.0084C5.22709 18.7896 5.52383 18.6667 5.83325 18.6667ZM19.8333 23.3334C20.1427 23.3334 20.4394 23.4563 20.6582 23.6751C20.877 23.8939 20.9999 24.1906 20.9999 24.5C20.9999 24.8095 20.877 25.1062 20.6582 25.325C20.4394 25.5438 20.1427 25.6667 19.8333 25.6667H8.16659C7.85717 25.6667 7.56042 25.5438 7.34163 25.325C7.12284 25.1062 6.99992 24.8095 6.99992 24.5C6.99992 24.1906 7.12284 23.8939 7.34163 23.6751C7.56042 23.4563 7.85717 23.3334 8.16659 23.3334H19.8333ZM17.4999 14C17.4999 13.0718 17.1312 12.1815 16.4748 11.5252C15.8184 10.8688 14.9282 10.5 13.9999 10.5C13.0717 10.5 12.1814 10.8688 11.525 11.5252C10.8687 12.1815 10.4999 13.0718 10.4999 14H17.4999ZM13.9999 2.33337L16.7883 6.32337C15.9249 6.00837 14.9799 5.83337 13.9999 5.83337C13.0199 5.83337 12.0749 6.00837 11.2116 6.32337L13.9999 2.33337ZM3.89659 8.16671L8.74992 7.75837C8.02583 8.36999 7.41047 9.09973 6.92992 9.91671C6.41659 10.78 6.12492 11.6667 5.96159 12.5884L3.89659 8.16671ZM24.0916 8.16671L22.0266 12.5884C21.6965 10.6992 20.7138 8.98571 19.2499 7.74671L24.0916 8.16671Z" fill="#6149A2"/>
</svg>
