<svg width="24" height="24" viewBox="0 0 24 24" fill="none" xmlns="http://www.w3.org/2000/svg">
<path d="M22.1807 3.88292C22.457 4.02122 22.6671 4.26356 22.7648 4.55668C22.8625 4.8498 22.8398 5.16972 22.7018 5.44614C22.2903 6.2703 21.5361 6.99188 20.776 7.4978C20.4368 7.72394 20.0533 7.9361 19.6499 8.10047C19.988 8.92813 20.2316 9.8199 20.368 10.7536H22.8253C23.1345 10.7536 23.431 10.8765 23.6496 11.0951C23.8682 11.3137 23.991 11.6102 23.991 11.9193C23.991 12.2285 23.8682 12.525 23.6496 12.7436C23.431 12.9622 23.1345 13.0851 22.8253 13.0851H20.4799C20.4164 14.4177 20.1246 15.7295 19.6173 16.9634C20.2841 17.3481 20.7399 17.9659 21.0266 18.5371C21.4332 19.3826 21.6493 20.307 21.6596 21.2451C21.6593 21.5422 21.5455 21.828 21.3416 22.044C21.1376 22.2601 20.8588 22.3901 20.5622 22.4075C20.2656 22.4249 19.9736 22.3284 19.7457 22.1377C19.5179 21.947 19.3714 21.6765 19.3363 21.3815L19.3282 21.2451C19.3282 20.8091 19.2104 20.119 18.9412 19.5804C18.7896 19.2773 18.6381 19.1036 18.4924 19.0104C17.0317 21.0632 14.8717 22.4108 12.3339 22.4108C9.79614 22.4108 7.63607 21.0632 6.17543 19.0104C6.02855 19.1036 5.87818 19.2785 5.72663 19.5816C5.48172 20.1026 5.34982 20.6695 5.33962 21.2451C5.33962 21.5542 5.2168 21.8507 4.99819 22.0693C4.77957 22.288 4.48307 22.4108 4.1739 22.4108C3.86473 22.4108 3.56823 22.288 3.34962 22.0693C3.131 21.8507 3.00819 21.5542 3.00819 21.2451C3.01869 20.3074 3.23476 19.3834 3.64117 18.5383C3.92794 17.9647 4.38373 17.3492 5.05052 16.9646C4.54303 15.7303 4.25125 14.4181 4.18789 13.0851H1.84247C1.53331 13.0851 1.2368 12.9622 1.01819 12.7436C0.799574 12.525 0.676758 12.2285 0.676758 11.9193C0.676758 11.6102 0.799574 11.3137 1.01819 11.0951C1.2368 10.8765 1.53331 10.7536 1.84247 10.7536H4.2998C4.43151 9.84357 4.67261 8.95273 5.01788 8.10047C4.62339 7.93756 4.24616 7.73567 3.8918 7.4978C3.13292 6.99188 2.37637 6.2703 1.96604 5.44614C1.83404 5.18034 1.80839 4.87419 1.89431 4.59013C1.98024 4.30607 2.17128 4.06547 2.42847 3.9174C2.68567 3.76933 2.98966 3.72493 3.27846 3.79325C3.56726 3.86157 3.81914 4.03747 3.98272 4.28509L4.05034 4.40399C4.2217 4.74554 4.63319 5.18968 5.18458 5.55805C5.75111 5.93574 6.25004 6.09078 6.50533 6.09078H18.1625C18.4178 6.09078 18.9167 5.93574 19.4832 5.55805C19.967 5.23514 20.3412 4.85512 20.5417 4.53688L20.6175 4.40399C20.7558 4.1277 20.9981 3.91762 21.2912 3.81992C21.5844 3.72221 21.9043 3.74487 22.1807 3.88292ZM17.2392 8.42221H7.42858C6.84805 9.59258 6.50533 10.9891 6.50533 12.5022C6.50533 16.3596 8.64675 19.2319 11.1682 19.9208V11.9193C11.1682 11.6102 11.291 11.3137 11.5096 11.0951C11.7282 10.8765 12.0247 10.7536 12.3339 10.7536C12.6431 10.7536 12.9396 10.8765 13.1582 11.0951C13.3768 11.3137 13.4996 11.6102 13.4996 11.9193V19.9208C16.0211 19.2319 18.1625 16.3596 18.1625 12.5022C18.1625 10.9891 17.8198 9.59258 17.2392 8.42221ZM12.3339 0.262207C13.357 0.262233 14.3621 0.531562 15.2481 1.04312C16.1341 1.55469 16.8699 2.29046 17.3814 3.17649L18.3956 4.92506H6.27219L7.28519 3.17649C7.79684 2.29029 8.53279 1.55441 9.41904 1.04283C10.3053 0.53126 11.3106 0.262028 12.3339 0.262207Z" fill="#6149A2"/>
</svg>
