<svg width="24" height="21" viewBox="0 0 24 21" fill="none" xmlns="http://www.w3.org/2000/svg">
<path d="M0 14.8437C0 13.6198 0.14323 12.3307 0.429688 10.9766C0.742188 9.62241 1.19792 8.28125 1.79688 6.95312C2.36979 5.65104 3.07292 4.40104 3.90625 3.20312C4.73959 2.00521 5.70313 0.937502 6.79688 0L10.7422 2.8125C9.51824 4.66146 8.59375 6.54948 7.96875 8.47656C7.36979 10.4036 7.07032 12.487 7.07032 14.7266V20.5469H0V14.8437ZM12.6953 14.8437C12.6953 13.6198 12.8385 12.3307 13.125 10.9766C13.4375 9.62241 13.8932 8.28125 14.4922 6.95312C15.0651 5.65104 15.7682 4.40104 16.6015 3.20312C17.4349 2.00521 18.3984 0.937502 19.4922 0L23.4375 2.8125C22.2135 4.66146 21.289 6.54948 20.664 8.47656C20.0651 10.4036 19.7656 12.487 19.7656 14.7266V20.5469H12.6953V14.8437Z" fill="#6149A2"/>
</svg>
