<svg width="24" height="28" viewBox="0 0 24 28" fill="none" xmlns="http://www.w3.org/2000/svg">
<path fill-rule="evenodd" clip-rule="evenodd" d="M10.072 0.241699L11.6179 1.16927C13.5787 2.32833 15.085 4.12207 15.8877 6.25371C16.16 5.64024 16.484 5.04517 16.7846 4.44397L17.9882 5.6476C20.6899 8.34932 23.2554 12.3982 23.2554 16.3306C23.2554 21.604 20.004 24.9474 14.8018 25.5253L13.0964 25.7142L13.4694 24.0394C13.7601 22.7291 13.8129 21.8727 13.7516 21.2727C13.6779 20.5181 13.3197 19.9255 12.8731 19.3366C12.4461 18.7722 12.0228 18.2066 11.6842 17.5821C10.2916 18.6826 9.75173 19.6764 9.57873 20.4948C9.35788 21.5426 9.67075 22.6137 10.2425 23.7572L11.251 25.7743L9.01066 25.5253C5.85006 25.1744 2.73608 23.0628 1.50914 19.982C0.226986 16.7588 1.1337 12.8583 5.27585 9.2683C8.0242 6.88681 9.47935 3.7986 10.072 0.241699ZM11.7062 4.2906C10.7713 6.91626 8.9763 9.30879 6.88191 11.1234C3.31029 14.219 2.99006 17.0667 3.79002 19.074C4.38509 20.5709 5.6697 21.8015 7.19233 22.4996C7.01444 21.6728 7.00942 20.8182 7.17761 19.9893C7.57759 18.0925 8.94195 16.3146 11.5627 14.6767L12.8841 13.8509L13.3773 15.3294C13.8092 16.625 14.7049 17.5416 15.4055 18.6789C16.176 19.9304 16.3232 21.3659 16.1662 22.799C19.3808 21.9954 20.8016 19.5574 20.8016 16.3306C20.8016 13.6043 19.1575 10.9296 17.5256 8.83887C16.8533 10.3456 15.4361 10.8756 14.0534 11.5676V9.5824C14.0534 7.90272 13.37 5.85495 11.7062 4.29183V4.2906Z" fill="#6149A2"/>
</svg>
