<svg width="22" height="22" viewBox="0 0 22 22" fill="none" xmlns="http://www.w3.org/2000/svg">
<path d="M16.4993 16.9577C17.2602 16.9577 17.8743 16.3435 17.8743 15.5827C17.8743 14.8218 17.2602 14.2077 16.4993 14.2077C15.7385 14.2077 15.1243 14.8218 15.1243 15.5827C15.1243 16.3435 15.7385 16.9577 16.4993 16.9577ZM17.8743 8.70768H15.5827V10.9993H19.671L17.8743 8.70768ZM5.49935 16.9577C6.26018 16.9577 6.87435 16.3435 6.87435 15.5827C6.87435 14.8218 6.26018 14.2077 5.49935 14.2077C4.73852 14.2077 4.12435 14.8218 4.12435 15.5827C4.12435 16.3435 4.73852 16.9577 5.49935 16.9577ZM18.3327 7.33268L21.0827 10.9993V15.5827H19.2493C19.2493 17.1043 18.021 18.3327 16.4993 18.3327C14.9777 18.3327 13.7493 17.1043 13.7493 15.5827H8.24935C8.24935 17.1043 7.02102 18.3327 5.49935 18.3327C3.97768 18.3327 2.74935 17.1043 2.74935 15.5827H0.916016V5.49935C0.916016 4.48185 1.73185 3.66602 2.74935 3.66602H15.5827V7.33268H18.3327ZM2.74935 5.49935V13.7493H3.44602C3.95018 13.1902 4.68352 12.8327 5.49935 12.8327C6.31518 12.8327 7.04852 13.1902 7.55268 13.7493H13.7493V5.49935H2.74935Z" fill="black"/>
</svg>
