<svg width="31" height="32" viewBox="0 0 31 32" fill="none" xmlns="http://www.w3.org/2000/svg">
<path d="M17.8387 31.1938C25.288 30.0665 31 23.6029 31 15.7971C31 7.19724 24.0678 0.226074 15.5161 0.226074C6.96436 0.226074 0.0322266 7.19724 0.0322266 15.7971C0.0322266 23.6029 5.74423 30.068 13.1935 31.1938V20.4685H10.8709C10.2549 20.4685 9.66419 20.2224 9.22862 19.7844C8.79305 19.3463 8.54836 18.7523 8.54836 18.1328C8.54836 17.5133 8.79305 16.9193 9.22862 16.4812C9.66419 16.0432 10.2549 15.7971 10.8709 15.7971H13.1935V12.6829C13.1935 11.2375 13.7645 9.85134 14.7808 8.82929C15.7971 7.80724 17.1756 7.23306 18.6129 7.23306H19.3871C20.0031 7.23306 20.5938 7.47913 21.0294 7.91715C21.4649 8.35518 21.7096 8.94926 21.7096 9.56872C21.7096 10.1882 21.4649 10.7823 21.0294 11.2203C20.5938 11.6583 20.0031 11.9044 19.3871 11.9044H18.6129C18.4075 11.9044 18.2106 11.9864 18.0654 12.1324C17.9202 12.2784 17.8387 12.4764 17.8387 12.6829V15.7971H20.1613C20.7772 15.7971 21.368 16.0432 21.8036 16.4812C22.2391 16.9193 22.4838 17.5133 22.4838 18.1328C22.4838 18.7523 22.2391 19.3463 21.8036 19.7844C21.368 20.2224 20.7772 20.4685 20.1613 20.4685H17.8387V31.1938Z" fill="#636DCF"/>
</svg>
